<?xml version="1.0" encoding="utf-8"?>
<!-- Generator: Adobe Illustrator 24.0.1, SVG Export Plug-In . SVG Version: 6.00 Build 0)  -->
<svg version="1.1" id="Layer_1" xmlns="http://www.w3.org/2000/svg" xmlns:xlink="http://www.w3.org/1999/xlink" x="0px" y="0px"
	 width="226px" height="432.1px" viewBox="0 0 226 432.1" style="enable-background:new 0 0 226 432.1;" xml:space="preserve">
<style type="text/css">
	.st0{opacity:0.11;fill:#010101;enable-background:new    ;}
	.st1{opacity:0.1;fill:#010101;enable-background:new    ;}
	.st2{opacity:0.13;fill:#010101;enable-background:new    ;}
	.st3{opacity:0.12;fill:#010101;enable-background:new    ;}
	.st4{opacity:5.000000e-02;fill:#010101;enable-background:new    ;}
	.st5{fill:#FFFFFF;}
	.st6{fill:#CCCCCC;}
	.st7{fill:#696969;}
	.st8{fill:url(#SVGID_1_);}
	.st9{fill:url(#SVGID_2_);}
	.st10{fill:#C4C0BD;}
</style>
<title>pricetag-shadow-med</title>
<path class="st0" d="M21,432.1c-11.6,0-21-9.4-21-21l0,0V146c0-3.8,1.5-7.4,4.2-10l50.7-50.7c2.6-2.7,6.2-4.2,10-4.2h96.2
	c3.8,0,7.4,1.5,10,4.2l50.7,50.7c2.7,2.6,4.2,6.2,4.2,10v265.1c0,11.6-9.4,21-21,21l0,0H21z M113,113.7c-3.9,0-7.1,3.2-7.1,7.1
	s3.2,7.1,7.1,7.1s7.1-3.2,7.1-7.1l0,0C120.1,116.9,116.9,113.7,113,113.7L113,113.7z"/>
<path class="st1" d="M21.5,429.1c-10.7,0-19.5-8.7-19.5-19.4v-0.1V144.5c0-3.4,1.3-6.6,3.7-9l50.7-50.7c2.4-2.4,5.6-3.7,9-3.7h96.2
	c3.4,0,6.6,1.3,9,3.7l50.7,50.7c2.4,2.4,3.7,5.6,3.7,9v265.1c0,10.7-8.7,19.5-19.4,19.5h-0.1H21.5z M113.5,110.7
	c-4.7,0-8.6,3.9-8.6,8.6s3.9,8.6,8.6,8.6s8.6-3.9,8.6-8.6l0,0C122.1,114.6,118.2,110.7,113.5,110.7L113.5,110.7z"/>
<path class="st2" d="M63.9,81.1c-3,0-5.8,1.2-7.9,3.3L5.3,135.1C3.2,137.2,2,140,2,143v265.1c0,9.9,8.1,18,18,18h184
	c9.9,0,18-8.1,18-18V143c0-3-1.2-5.8-3.3-7.9L168,84.4c-2.1-2.1-4.9-3.3-7.9-3.3H63.9z M112,127.9c-5.6,0-10.1-4.5-10.1-10.1
	s4.5-10.1,10.1-10.1s10.1,4.5,10.1,10.1l0,0C122.1,123.4,117.6,127.9,112,127.9L112,127.9z"/>
<path class="st0" d="M20,423.6c-9.1,0-16.5-7.4-16.5-16.5V142c0-2.6,1-5,2.9-6.8l50.7-50.7c1.8-1.8,4.2-2.9,6.8-2.9h96.2
	c2.6,0,5,1,6.8,2.9l50.7,50.7c1.8,1.8,2.9,4.2,2.9,6.8v265.1c0,9.1-7.4,16.5-16.5,16.5H20z M112,105.2c-6.4,0-11.6,5.2-11.6,11.6
	s5.2,11.6,11.6,11.6s11.6-5.2,11.6-11.6l0,0C123.6,110.4,118.4,105.2,112,105.2L112,105.2z"/>
<path class="st3" d="M19.5,420.1c-8.3,0-15-6.7-15-15V140c0-2.2,0.9-4.2,2.4-5.8l50.7-50.7c1.5-1.6,3.6-2.4,5.8-2.4h96.2
	c2.2,0,4.2,0.9,5.8,2.4l50.7,50.7c1.6,1.5,2.4,3.6,2.4,5.8v265.1c0,8.3-6.7,15-15,15H19.5z M111.5,101.7c-7.2,0-13.1,5.9-13.1,13.1
	s5.9,13.1,13.1,13.1s13.1-5.9,13.1-13.1l0,0C124.6,107.6,118.7,101.7,111.5,101.7L111.5,101.7z"/>
<path class="st4" d="M121.2,79.6c-0.7-1.7-1.2-3.3-3.7-4.8c1.5-26.2,2-32.2,3.2-52.8c2-36.3,13.7-107.7,1.7-119.4
	c-1.2-1.2-2.7-2.4-4.2-2.4c-1.7,0-3.3,1.4-4.6,3c-11,13.1-8.2,100.6-7.3,113.3c1,14.4,1.9,34.3,2.6,58.7c-2.8,1.3-3.9,2.6-4.6,4.5
	 M110.2,25c-2.3-36.3-5.8-121.9,8.4-121.9c11,0,4,75.6,1.5,96.7c-0.4,3.9-3.5,48.7-5,74.8c-1.1-0.3-2.3-0.4-3.5-0.4
	C110.8,50,111.1,39.7,110.2,25z"/>
<g>
	<path class="st5" d="M20,418.6c-9.1,0-16.5-7.4-16.5-16.5V128.5c0-2.1,1-4.2,2.8-5.7L57,79c1.9-1.6,4.4-2.4,6.9-2.4h96.2
		c0.2,0,0.3,0,0.4,0c2.4,0,4.7,0.9,6.5,2.4l50.7,43.8c1.8,1.4,2.8,3.5,2.8,5.7v273.6c0,9.1-7.4,16.5-16.5,16.5H20z M112,89.7
		c-10.8,0-19.5,7.6-19.5,17s8.7,17,19.5,17c10.8,0,19.5-7.6,19.5-17S122.8,89.7,112,89.7z"/>
	<path class="st6" d="M160.5,78.1c2,0,4,0.7,5.5,2.1l50.7,43.8l0,0l0,0c1.4,1.1,2.2,2.8,2.2,4.5v273.6c0,8.3-6.7,15-15,15H20
		c-8.3,0-15-6.7-15-15V128.5c0-1.6,0.8-3.3,2.3-4.5l50.7-43.8c1.7-1.4,3.8-2.1,6-2.1h96.2h0.1l0.1,0
		C160.3,78.1,160.4,78.1,160.5,78.1 M112,125.2c11.6,0,21-8.3,21-18.5c0-10.2-9.4-18.5-21-18.5s-21,8.3-21,18.5
		C91,116.9,100.4,125.2,112,125.2 M160.5,75.1c-0.1,0-0.3,0-0.4,0H63.9c-2.9,0-5.7,1-7.9,2.8L5.3,121.7c-2,1.7-3.3,4.2-3.3,6.8
		v273.6c0,9.9,8.1,18,18,18h184c9.9,0,18-8.1,18-18V128.5c0-2.7-1.3-5.2-3.3-6.8L168,77.9C165.9,76.1,163.3,75.1,160.5,75.1
		L160.5,75.1z M112,122.2c-9.9,0-18-6.9-18-15.5s8-15.5,18-15.5s18,6.9,18,15.5S121.9,122.2,112,122.2L112,122.2z"/>
</g>
<path class="st7" d="M112,94.7c-9.4,0-17.1,7.7-17.1,17.1s7.7,17.1,17.1,17.1s17.1-7.7,17.1-17.1S121.4,94.7,112,94.7z M112,121.9
	c-5.6,0-10.1-4.5-10.1-10.1s4.5-10.1,10.1-10.1s10.1,4.5,10.1,10.1l0,0C122.1,117.4,117.6,121.9,112,121.9L112,121.9z"/>
<linearGradient id="SVGID_1_" gradientUnits="userSpaceOnUse" x1="112" y1="-565.32" x2="112" y2="-605.72" gradientTransform="matrix(1 0 0 1 0 697.15)">
	<stop  offset="0" style="stop-color:#C2C2C2"/>
	<stop  offset="0.46" style="stop-color:#C2C2C2"/>
	<stop  offset="0.96" style="stop-color:#FFFFFF"/>
</linearGradient>
<path class="st8" d="M112,91.5c-11.2,0-20.2,9-20.2,20.2s9,20.2,20.2,20.2s20.2-9,20.2-20.2l0,0C132.2,100.6,123.1,91.5,112,91.5z
	 M112,129.1c-9.6,0-17.3-7.7-17.3-17.3s7.7-17.3,17.3-17.3s17.3,7.7,17.3,17.3S121.6,129.1,112,129.1z"/>
<linearGradient id="SVGID_2_" gradientUnits="userSpaceOnUse" x1="112" y1="-566.45" x2="112" y2="-604.25" gradientTransform="matrix(1 0 0 1 0 697.15)">
	<stop  offset="2.897440e-02" style="stop-color:#FFFFFF"/>
	<stop  offset="4.113510e-02" style="stop-color:#F9F9F9"/>
	<stop  offset="9.895270e-02" style="stop-color:#E1E1E1"/>
	<stop  offset="0.16" style="stop-color:#D0D0D0"/>
	<stop  offset="0.226" style="stop-color:#C5C5C5"/>
	<stop  offset="0.3056" style="stop-color:#C2C2C2"/>
	<stop  offset="0.5125" style="stop-color:#C5C5C5"/>
	<stop  offset="0.6441" style="stop-color:#CDCDCD"/>
	<stop  offset="0.7547" style="stop-color:#DCDCDC"/>
	<stop  offset="0.8531" style="stop-color:#F1F1F1"/>
	<stop  offset="0.9051" style="stop-color:#FFFFFF"/>
</linearGradient>
<path class="st9" d="M123.4,111.8c0,6.3-5.1,11.4-11.4,11.4s-11.4-5.1-11.4-11.4s5.1-11.4,11.4-11.4S123.4,105.5,123.4,111.8
	L123.4,111.8z M112,92.9c-10.4,0-18.9,8.5-18.9,18.9s8.5,18.9,18.9,18.9s18.9-8.5,18.9-18.9l0,0C130.9,101.4,122.4,92.9,112,92.9z"
	/>
<path class="st10" d="M110.4,104.9c-0.4,0-0.8-0.3-0.8-0.8l0,0c0-0.8-1.7-78.7-3.4-104.4c-0.9-12.7-4.5-84.8,7.2-97.3
	c1.2-1.4,2.9-2.2,4.7-2.2c1.5,0,3,0.7,3.9,1.9c8.5,9.6,2.8,66.2,0.1,89.4c-0.5,3.9-0.8,7-1,9.1c-1.6,16.4-6.2,102.6-6.3,103.5
	c0,0.5-0.4,0.8-0.9,0.8s-0.8-0.4-0.8-0.9l0,0c0-0.9,4.7-87.2,6.3-103.6c0.2-2.1,0.6-5.2,1-9.1c2.5-21.1,8.4-79,0.4-88.1
	c-0.6-0.8-1.6-1.3-2.6-1.3c-1.3,0.1-2.6,0.7-3.4,1.7c-8.7,9.3-9,61.4-6.7,96.1c1.7,25.7,3.4,103.7,3.4,104.4
	C111.3,104.5,110.9,104.8,110.4,104.9L110.4,104.9z"/>
<path class="st5" d="M110.2,104.2c-0.2,0-0.4-0.2-0.4-0.4c0-0.8-1.7-78.7-3.4-104.4c-0.5-7.7-4.8-84.4,7.1-97
	c1.1-1.3,2.7-2.1,4.4-2.1c1.4,0,2.7,0.6,3.6,1.7c8.4,9.5,2.7,66,0,89.1c-0.5,3.9-0.8,7-1,9.1c-1.6,16.4-6.2,102.7-6.3,103.5
	c0,0.2-0.3,0.4-0.5,0.4s-0.4-0.3-0.4-0.5l0,0c0-0.9,4.7-87.2,6.3-103.6c0.2-2.1,0.6-5.2,1-9.1c2.7-23,8.4-79.2,0.3-88.4
	c-0.7-0.9-1.8-1.4-2.9-1.4c-1.4,0-2.8,0.7-3.7,1.8c-11.6,12.4-7.3,88.7-6.8,96.4c1.7,25.7,3.4,103.6,3.4,104.4
	C110.8,104,110.5,104.2,110.2,104.2L110.2,104.2z"/>
<path class="st10" d="M112.5,68.3c-5.3,0-7.7,4.1-8.7,6.7h1.8c0.9-2.2,2.9-5,6.9-5s6.1,2.9,7.1,5h1.8
	C120.4,72.5,117.8,68.3,112.5,68.3z"/>
<path class="st5" d="M112.4,68.5c-5.1,0-7.4,4.1-8.3,6.6h0.9c0.9-2.3,3-5.7,7.4-5.7s6.6,3.4,7.6,5.7h1
	C119.9,72.6,117.5,68.5,112.4,68.5z"/>
</svg>
